<?xml version="1.0" encoding="UTF-8" standalone="no"?>
<!DOCTYPE svg PUBLIC "-//W3C//DTD SVG 1.1//EN" "http://www.w3.org/Graphics/SVG/1.1/DTD/svg11.dtd">
<svg width="100%" height="100%" viewBox="0 0 500 500" version="1.1" xmlns="http://www.w3.org/2000/svg" xmlns:xlink="http://www.w3.org/1999/xlink" xml:space="preserve" xmlns:serif="http://www.serif.com/" style="fill-rule:evenodd;clip-rule:evenodd;stroke-linecap:round;stroke-linejoin:round;stroke-miterlimit:1.5;">
    <g transform="matrix(1,0,0,1,-41.5158,-10.753)">
        <circle cx="328.716" cy="213.72" r="149.186" style="fill:rgb(235,235,235);fill-opacity:0;stroke:black;stroke-width:21.9px;"/>
    </g>
    <g transform="matrix(1,0,0,1,-56.9071,-39.7767)">
        <path d="M274.846,204.046C274.846,204.046 341.249,131.926 413.369,204.925" style="fill:none;stroke:black;stroke-width:40.23px;"/>
    </g>
    <g transform="matrix(4.70967,0,0,3.8421,-1309.1,-741.891)">
        <ellipse cx="338.94" cy="250.88" rx="10.224" ry="12.533" style="stroke:black;stroke-width:5.1px;"/>
    </g>
    <g transform="matrix(1,0,0,1,-41.5158,-10.753)">
        <circle cx="121.124" cy="232.767" r="5.954" style="stroke:black;stroke-width:21.9px;"/>
    </g>
    <g transform="matrix(1,0,0,1.27413,-10.9193,-112.4)">
        <path d="M148.933,371.745C148.933,371.745 266.634,364.049 259.455,400.879" style="fill:none;stroke:black;stroke-width:19.12px;"/>
    </g>
    <g transform="matrix(1,0,0,1,-41.5158,-10.753)">
        <path d="M97.488,205.18C116.626,196.624 103.342,121.873 151.075,210.133" style="fill:none;stroke:black;stroke-width:21.9px;"/>
    </g>
    <g transform="matrix(0.828823,0,0,1,77.0782,-74.3107)">
        <ellipse cx="428.516" cy="398.808" rx="11.785" ry="27.656" style="fill:white;fill-opacity:0;stroke:black;stroke-width:9.47px;"/>
    </g>
    <g transform="matrix(1,0,0,1,3.72603,19.7545)">
        <ellipse cx="428.516" cy="398.808" rx="11.785" ry="27.656" style="fill:white;fill-opacity:0;stroke:black;stroke-width:8.7px;"/>
    </g>
    <g transform="matrix(0.35164,0,0,1,281.559,-117.653)">
        <ellipse cx="428.516" cy="398.808" rx="11.785" ry="27.656" style="fill:white;fill-opacity:0;stroke:black;stroke-width:11.61px;"/>
    </g>
    <g transform="matrix(0.608404,0,0,1,171.531,-25.3398)">
        <ellipse cx="428.516" cy="398.808" rx="11.785" ry="27.656" style="fill:white;fill-opacity:0;stroke:black;stroke-width:10.51px;"/>
    </g>
</svg>
