<?xml version="1.0" encoding="UTF-8" standalone="no"?>
<!DOCTYPE svg PUBLIC "-//W3C//DTD SVG 1.1//EN" "http://www.w3.org/Graphics/SVG/1.1/DTD/svg11.dtd">
<svg width="100%" height="100%" viewBox="0 0 2819 901" version="1.1" xmlns="http://www.w3.org/2000/svg" xmlns:xlink="http://www.w3.org/1999/xlink" xml:space="preserve" xmlns:serif="http://www.serif.com/" style="fill-rule:evenodd;clip-rule:evenodd;stroke-linecap:round;stroke-linejoin:round;stroke-miterlimit:1.5;">
    <g transform="matrix(1,0,0,1,-240.5,-1293.25)">
        <g transform="matrix(1,0,0,1,-211,18.75)">
            <g transform="matrix(1,0,0,1,211,-18.75)">
                <path d="M2674.98,1293.75L2702.2,1293.75L2702.2,2191.75L2378.2,2191.75M2378.2,2191.75L2378.2,2168.75M2378.2,2168.75C2424.09,2168.85 2674.88,2072.42 2674.98,1293.75" style="fill:none;stroke:black;stroke-width:1px;"/>
            </g>
            <g transform="matrix(1,0,0,1,211,-18.75)">
                <path d="M2762.22,1293.75L2735,1293.75L2735,2191.75L3059,2191.75M3059,2191.75L3059,2168.75M3059,2168.75C3013.11,2168.85 2762.32,2072.42 2762.22,1293.75" style="fill:none;stroke:black;stroke-width:1px;"/>
            </g>
            <path id="I" d="M452,2100L602,2100L602,1350L452,1350L452,1275L902,1275L902,1350L752,1350L752,2025C752,2066.42 785.579,2100 827,2100L902,2100L902,2175L452,2175L452,2100Z" style="fill:none;stroke:black;stroke-width:1px;"/>
            <path d="M1614.5,2175L1614.5,1275L1839.5,1275C1879.28,1275 1917.44,1290.8 1945.57,1318.93C1973.7,1347.06 1989.5,1385.22 1989.5,1425L1989.5,1650C1989.5,1691.42 1955.92,1725 1914.5,1725L1914.5,1725C1914.5,1725 1914.5,1725 1914.5,1725C1955.92,1725 1989.5,1758.58 1989.5,1800L1989.5,2062.5C1989.5,2083.21 2006.29,2100 2027,2100L2064.5,2100L2064.5,2175L1914.5,2175C1873.08,2175 1839.5,2141.42 1839.5,2100L1839.5,1837.5C1839.5,1817.61 1831.6,1798.53 1817.53,1784.47C1803.47,1770.4 1784.39,1762.5 1764.5,1762.5L1764.5,1762.5L1764.5,2175L1614.5,2175Z" style="fill:none;stroke:black;stroke-width:1px;"/>
            <path d="M1764.5,1350L1764.5,1687.5L1764.5,1687.5C1805.92,1687.5 1839.5,1653.92 1839.5,1612.5L1839.5,1425C1839.5,1383.58 1805.92,1350 1764.5,1350L1764.5,1350Z" style="fill:none;stroke:black;stroke-width:1px;"/>
            <path d="M1277,1275L1277,2025C1277,2064.78 1292.8,2102.94 1320.93,2131.07C1349.06,2159.2 1387.22,2175 1427,2175L1577,2175L1577,2100L1502,2100C1460.58,2100 1427,2066.42 1427,2025L1427,1762.5L1578,1762L1577,1688L1425,1687.5L1427,1350L1577,1350L1577,1275L1277,1275Z" style="fill:none;stroke:black;stroke-width:1px;"/>
            <path d="M1239.5,2175L1089.5,2175C1049.72,2175 1011.56,2159.2 983.434,2131.07C955.304,2102.94 939.5,2064.78 939.5,2025L939.5,1275L1089.5,1275L1089.5,1425L1239.5,1425L1239.5,1500L1089.5,1500L1089.5,2025C1089.5,2066.42 1123.08,2100 1164.5,2100L1239.5,2100L1239.5,2175Z" style="fill:none;stroke:black;stroke-width:1px;"/>
        </g>
        <g transform="matrix(1,0,0,1,-211,18.75)">
            <path d="M2495.75,2062.5C2495.75,2072.86 2504.14,2081.25 2514.5,2081.25L2552,2081.25C2562.36,2081.25 2570.75,2089.64 2570.75,2100L2570.75,2175C2570.75,2185.36 2562.36,2193.75 2552,2193.75L2177,2193.75C2132.24,2193.75 2089.32,2175.97 2057.68,2144.32C2026.03,2112.68 2008.25,2069.76 2008.25,2025L2008.25,1275C2008.25,1264.64 2016.64,1256.25 2027,1256.25L2177,1256.25C2187.36,1256.25 2195.75,1264.64 2195.75,1275L2195.75,2025C2195.75,2056.07 2220.93,2081.25 2252,2081.25C2283.07,2081.25 2308.25,2056.07 2308.25,2025L2308.25,1275C2308.25,1264.64 2316.64,1256.25 2327,1256.25L2477,1256.25C2487.36,1256.25 2495.75,1264.64 2495.75,1275L2495.75,2062.5Z" style="fill:white;"/>
        </g>
        <g transform="matrix(1,0,0,1,-211,18.75)">
            <path d="M2064.5,2151C2054.22,2142 2035.65,2123 2025.73,2100" style="fill:none;stroke:black;stroke-width:1px;"/>
        </g>
        <g transform="matrix(1,0,0,1,-211,18.75)">
            <path d="M2477,2062.5C2477,2083.21 2493.79,2100 2514.5,2100C2533.25,2100 2552,2100 2552,2100L2552,2175L2177,2175C2137.22,2175 2099.06,2159.2 2070.93,2131.07C2042.8,2102.94 2027,2064.78 2027,2025L2027,1275L2177,1275L2177,2025C2177,2066.42 2210.58,2100 2252,2100C2293.42,2100 2327,2066.42 2327,2025L2327,1275L2477,1275L2477,2062.5Z"/>
        </g>
        <g transform="matrix(1,0,0,1,-211,18.75)">
            <path d="M2064.5,2150.78L2064.5,2175L1914.5,2175C1873.08,2175 1839.5,2141.42 1839.5,2100L1839.5,1837.5C1839.5,1796.08 1805.92,1762.5 1764.5,1762.5L1764.5,2175L1614.5,2175L1614.5,1275L1839.5,1275C1879.28,1275 1917.44,1290.8 1945.57,1318.93C1973.7,1347.06 1989.5,1385.22 1989.5,1425L1989.5,1650C1989.5,1691.42 1955.92,1725 1914.5,1725C1955.92,1725 1989.5,1758.58 1989.5,1800L1989.5,2062.5C1989.5,2082.82 2005.66,2099.36 2025.82,2099.98C2033.89,2116.24 2044.6,2131.25 2057.68,2144.32C2059.9,2146.55 2062.17,2148.7 2064.5,2150.78ZM1764.5,1350L1764.5,1687.5C1805.92,1687.5 1839.5,1653.92 1839.5,1612.5L1839.5,1425C1839.5,1383.58 1805.92,1350 1764.5,1350ZM452,2100L602,2100L602,1350L452,1350L452,1275L902,1275L902,1350L752,1350L752,2025C752,2066.42 785.579,2100 827,2100L902,2100L902,2175L452,2175L452,2100ZM1277,1275L1577,1275L1577,1350L1427,1350L1425,1687.5L1577,1688L1578,1762L1427,1762.5L1427,2025C1427,2066.42 1460.58,2100 1502,2100L1577,2100L1577,2175L1427,2175C1387.22,2175 1349.06,2159.2 1320.93,2131.07C1292.8,2102.94 1277,2064.78 1277,2025L1277,1275ZM1239.5,2175L1089.5,2175C1049.72,2175 1011.56,2159.2 983.434,2131.07C955.304,2102.94 939.5,2064.78 939.5,2025L939.5,1275L1089.5,1275L1089.5,1425L1239.5,1425L1239.5,1500L1089.5,1500L1089.5,2025C1089.5,2066.42 1123.08,2100 1164.5,2100L1239.5,2100L1239.5,2175Z" style="stroke:black;stroke-width:1px;"/>
        </g>
    </g>
</svg>
